<svg width="1001" height="566" viewBox="0 0 1001 566" fill="none" xmlns="http://www.w3.org/2000/svg">
<path d="M105.61 83.0205H307.759V0H5.18331V240.759H112.089C115.113 230.797 121.376 222.864 130.879 216.96C140.381 210.688 152.476 207.551 167.162 207.551C187.031 207.551 202.149 212.348 212.516 221.941C222.882 231.535 228.066 245.372 228.066 263.452C228.066 281.111 223.514 295.39 214.412 306.288L240.723 311.001L281.886 296.916L323.447 206.531C322.393 204.079 321.267 201.652 320.069 199.249C310.135 179.324 294.369 163.089 272.772 150.544C251.606 137.998 224.826 131.726 192.43 131.726C174.289 131.726 157.443 134.309 141.893 139.474C126.343 144.64 114.249 151.282 105.61 159.399V83.0205Z" fill="white"/>
<path d="M334.866 258.175L312.054 311.344L245.57 337.787L186.777 327.956L137.635 339.959L92.6553 385.465L46.7742 370.503C56.8353 377.919 68.4563 384.299 81.6371 389.643C107.122 399.605 137.142 404.586 171.697 404.586C223.53 404.586 263.701 392.041 292.209 366.95C320.717 341.491 334.971 307.176 334.971 264.005C334.971 262.05 334.936 260.106 334.866 258.175Z" fill="white"/>
<path d="M9.90038 325.806L82.3786 349.675L111.749 317.682L127.676 313.763C127.446 313.598 127.218 313.432 126.991 313.264C117.056 305.515 110.793 295.922 108.202 284.483H0C0.816075 299.355 4.1162 313.13 9.90038 325.806Z" fill="white"/>
<path d="M361.197 196.79C361.18 198.433 361.172 200.086 361.172 201.748C361.172 264.999 373.163 314.618 397.144 350.605C421.488 386.593 460.549 404.586 514.325 404.586C568.101 404.586 606.98 386.593 630.961 350.605C644.723 330.261 654.596 305.561 660.578 276.504L649.19 294.515L574.794 236.096C574.068 246.203 572.987 255.292 571.553 263.363C568.646 279.357 562.651 292.444 553.567 302.622C544.847 312.437 531.766 317.344 514.325 317.344C496.884 317.344 483.622 312.437 474.538 302.622C465.817 292.444 460.004 279.357 457.097 263.363C454.703 249.89 453.295 233.581 452.872 214.436L419.001 188.211L370.197 175.815L361.197 196.79Z" fill="white"/>
<path d="M363.689 154.913L428.904 169.414L452.903 189.142C453.733 158.522 457.674 134.552 464.727 117.232C472.721 97.2389 489.254 87.2424 514.325 87.2424C539.396 87.2424 555.929 97.2389 563.923 117.232C571.916 136.861 575.913 165.033 575.913 201.748C575.913 207.48 575.835 212.988 575.679 218.271L644.867 270.625L665.757 241.015C666.905 228.568 667.478 215.479 667.478 201.748C667.478 139.224 655.306 89.9687 630.961 53.9812C606.98 17.9937 568.101 0 514.325 0C460.549 0 421.488 17.9937 397.144 53.9812C379.507 80.4485 368.355 114.092 363.689 154.913Z" fill="white"/>
<path d="M729.683 53.9812C705.702 89.9687 693.711 139.224 693.711 201.748C693.711 205.716 693.758 209.631 693.852 213.492L729.201 195.729L765.401 148.965L798.064 82.655L854.428 58.0538L998.671 167.2C994.894 120.799 983.171 83.0588 963.5 53.9812C939.519 17.9937 900.64 0 846.864 0C793.088 0 754.027 17.9937 729.683 53.9812Z" fill="white"/>
<path fill-rule="evenodd" clip-rule="evenodd" d="M998.771 168.456L855.869 66.0171L806.174 85.4619L778.84 149.715L738.358 204.328L694.354 226.388C697.132 278.024 708.908 319.43 729.683 350.605C754.027 386.593 793.088 404.586 846.864 404.586C900.64 404.586 939.519 386.593 963.5 350.605C987.845 314.618 1000.02 264.999 1000.02 201.748C1000.02 190.198 999.602 179.1 998.771 168.456ZM896.462 117.232C904.455 136.861 908.452 165.033 908.452 201.748C908.452 226.467 906.999 247.005 904.092 263.363C901.185 279.357 895.19 292.444 886.106 302.622C877.386 312.437 864.305 317.344 846.864 317.344C829.423 317.344 816.161 312.437 807.077 302.622C798.356 292.444 792.543 279.357 789.636 263.363C786.729 247.005 785.276 226.467 785.276 201.748C785.276 165.033 789.273 136.861 797.266 117.232C805.26 97.2389 821.793 87.2424 846.864 87.2424C871.935 87.2424 888.468 97.2389 896.462 117.232Z" fill="white"/>
<path d="M191.73 512.866C189.116 512.866 186.716 512.253 184.53 511.026C182.343 509.8 180.61 508.106 179.33 505.946C178.05 503.76 177.41 501.293 177.41 498.546C177.41 495.826 178.05 493.386 179.33 491.226C180.61 489.04 182.343 487.333 184.53 486.106C186.716 484.88 189.116 484.266 191.73 484.266C194.37 484.266 196.77 484.88 198.93 486.106C201.116 487.333 202.836 489.04 204.09 491.226C205.37 493.386 206.01 495.826 206.01 498.546C206.01 501.293 205.37 503.76 204.09 505.946C202.836 508.106 201.116 509.8 198.93 511.026C196.743 512.253 194.343 512.866 191.73 512.866ZM191.73 507.866C193.41 507.866 194.89 507.493 196.17 506.746C197.45 505.973 198.45 504.88 199.17 503.466C199.89 502.053 200.25 500.413 200.25 498.546C200.25 496.68 199.89 495.053 199.17 493.666C198.45 492.253 197.45 491.173 196.17 490.426C194.89 489.68 193.41 489.306 191.73 489.306C190.05 489.306 188.556 489.68 187.25 490.426C185.97 491.173 184.97 492.253 184.25 493.666C183.53 495.053 183.17 496.68 183.17 498.546C183.17 500.413 183.53 502.053 184.25 503.466C184.97 504.88 185.97 505.973 187.25 506.746C188.556 507.493 190.05 507.866 191.73 507.866ZM220.016 512.946C217.883 512.946 215.963 512.48 214.256 511.546C212.549 510.586 211.203 509.24 210.216 507.506C209.256 505.773 208.776 503.773 208.776 501.506C208.776 499.24 209.269 497.24 210.256 495.506C211.269 493.773 212.643 492.44 214.376 491.506C216.109 490.546 218.043 490.066 220.176 490.066C222.309 490.066 224.243 490.546 225.976 491.506C227.709 492.44 229.069 493.773 230.056 495.506C231.069 497.24 231.576 499.24 231.576 501.506C231.576 503.773 231.056 505.773 230.016 507.506C229.003 509.24 227.616 510.586 225.856 511.546C224.123 512.48 222.176 512.946 220.016 512.946ZM220.016 508.066C221.029 508.066 221.976 507.826 222.856 507.346C223.763 506.84 224.483 506.093 225.016 505.106C225.549 504.12 225.816 502.92 225.816 501.506C225.816 499.4 225.256 497.786 224.136 496.666C223.043 495.52 221.696 494.946 220.096 494.946C218.496 494.946 217.149 495.52 216.056 496.666C214.989 497.786 214.456 499.4 214.456 501.506C214.456 503.613 214.976 505.24 216.016 506.386C217.083 507.506 218.416 508.066 220.016 508.066ZM241.284 493.626C242.004 492.613 242.99 491.773 244.244 491.106C245.524 490.413 246.977 490.066 248.604 490.066C250.497 490.066 252.204 490.533 253.724 491.466C255.27 492.4 256.484 493.733 257.364 495.466C258.27 497.173 258.724 499.16 258.724 501.426C258.724 503.693 258.27 505.706 257.364 507.466C256.484 509.2 255.27 510.546 253.724 511.506C252.204 512.466 250.497 512.946 248.604 512.946C246.977 512.946 245.537 512.613 244.284 511.946C243.057 511.28 242.057 510.44 241.284 509.426V523.146H235.684V490.426H241.284V493.626ZM253.004 501.426C253.004 500.093 252.724 498.946 252.164 497.986C251.63 497 250.91 496.253 250.004 495.746C249.124 495.24 248.164 494.986 247.124 494.986C246.11 494.986 245.15 495.253 244.244 495.786C243.364 496.293 242.644 497.04 242.084 498.026C241.55 499.013 241.284 500.173 241.284 501.506C241.284 502.84 241.55 504 242.084 504.986C242.644 505.973 243.364 506.733 244.244 507.266C245.15 507.773 246.11 508.026 247.124 508.026C248.164 508.026 249.124 507.76 250.004 507.226C250.91 506.693 251.63 505.933 252.164 504.946C252.724 503.96 253.004 502.786 253.004 501.426ZM271.273 512.946C269.46 512.946 267.833 512.626 266.393 511.986C264.953 511.32 263.807 510.426 262.953 509.306C262.127 508.186 261.673 506.946 261.593 505.586H267.233C267.34 506.44 267.753 507.146 268.473 507.706C269.22 508.266 270.14 508.546 271.233 508.546C272.3 508.546 273.127 508.333 273.713 507.906C274.327 507.48 274.633 506.933 274.633 506.266C274.633 505.546 274.26 505.013 273.513 504.666C272.793 504.293 271.633 503.893 270.033 503.466C268.38 503.066 267.02 502.653 265.953 502.226C264.913 501.8 264.007 501.146 263.233 500.266C262.487 499.386 262.113 498.2 262.113 496.706C262.113 495.48 262.46 494.36 263.153 493.346C263.873 492.333 264.887 491.533 266.193 490.946C267.527 490.36 269.087 490.066 270.873 490.066C273.513 490.066 275.62 490.733 277.193 492.066C278.767 493.373 279.633 495.146 279.793 497.386H274.433C274.353 496.506 273.98 495.813 273.313 495.306C272.673 494.773 271.807 494.506 270.713 494.506C269.7 494.506 268.913 494.693 268.353 495.066C267.82 495.44 267.553 495.96 267.553 496.626C267.553 497.373 267.927 497.946 268.673 498.346C269.42 498.72 270.58 499.106 272.153 499.506C273.753 499.906 275.073 500.32 276.113 500.746C277.153 501.173 278.047 501.84 278.793 502.746C279.567 503.626 279.967 504.8 279.993 506.266C279.993 507.546 279.633 508.693 278.913 509.706C278.22 510.72 277.207 511.52 275.873 512.106C274.567 512.666 273.033 512.946 271.273 512.946ZM291.83 484.186L291.19 503.506H286.47L285.79 484.186H291.83ZM288.95 512.866C287.937 512.866 287.097 512.56 286.43 511.946C285.79 511.306 285.47 510.52 285.47 509.586C285.47 508.653 285.79 507.88 286.43 507.266C287.097 506.626 287.937 506.306 288.95 506.306C289.937 506.306 290.75 506.626 291.39 507.266C292.03 507.88 292.35 508.653 292.35 509.586C292.35 510.52 292.03 511.306 291.39 511.946C290.75 512.56 289.937 512.866 288.95 512.866ZM327.262 484.666V489.186H319.822V512.586H314.222V489.186H306.782V484.666H327.262ZM343.828 490.106C345.508 490.106 347.001 490.48 348.308 491.226C349.615 491.946 350.628 493.026 351.348 494.466C352.095 495.88 352.468 497.586 352.468 499.586V512.586H346.868V500.346C346.868 498.586 346.428 497.24 345.548 496.306C344.668 495.346 343.468 494.866 341.948 494.866C340.401 494.866 339.175 495.346 338.268 496.306C337.388 497.24 336.948 498.586 336.948 500.346V512.586H331.348V482.986H336.948V493.186C337.668 492.226 338.628 491.48 339.828 490.946C341.028 490.386 342.361 490.106 343.828 490.106ZM360.633 487.786C359.647 487.786 358.82 487.48 358.153 486.866C357.513 486.226 357.193 485.44 357.193 484.506C357.193 483.573 357.513 482.8 358.153 482.186C358.82 481.546 359.647 481.226 360.633 481.226C361.62 481.226 362.433 481.546 363.073 482.186C363.74 482.8 364.073 483.573 364.073 484.506C364.073 485.44 363.74 486.226 363.073 486.866C362.433 487.48 361.62 487.786 360.633 487.786ZM363.393 490.426V512.586H357.793V490.426H363.393ZM377.406 512.946C375.593 512.946 373.966 512.626 372.526 511.986C371.086 511.32 369.939 510.426 369.086 509.306C368.259 508.186 367.806 506.946 367.726 505.586H373.366C373.473 506.44 373.886 507.146 374.606 507.706C375.353 508.266 376.273 508.546 377.366 508.546C378.433 508.546 379.259 508.333 379.846 507.906C380.459 507.48 380.766 506.933 380.766 506.266C380.766 505.546 380.393 505.013 379.646 504.666C378.926 504.293 377.766 503.893 376.166 503.466C374.513 503.066 373.153 502.653 372.086 502.226C371.046 501.8 370.139 501.146 369.366 500.266C368.619 499.386 368.246 498.2 368.246 496.706C368.246 495.48 368.593 494.36 369.286 493.346C370.006 492.333 371.019 491.533 372.326 490.946C373.659 490.36 375.219 490.066 377.006 490.066C379.646 490.066 381.753 490.733 383.326 492.066C384.899 493.373 385.766 495.146 385.926 497.386H380.566C380.486 496.506 380.113 495.813 379.446 495.306C378.806 494.773 377.939 494.506 376.846 494.506C375.833 494.506 375.046 494.693 374.486 495.066C373.953 495.44 373.686 495.96 373.686 496.626C373.686 497.373 374.059 497.946 374.806 498.346C375.553 498.72 376.713 499.106 378.286 499.506C379.886 499.906 381.206 500.32 382.246 500.746C383.286 501.173 384.179 501.84 384.926 502.746C385.699 503.626 386.099 504.8 386.126 506.266C386.126 507.546 385.766 508.693 385.046 509.706C384.353 510.72 383.339 511.52 382.006 512.106C380.699 512.666 379.166 512.946 377.406 512.946ZM420.614 493.306C420.614 494.8 420.254 496.2 419.534 497.506C418.841 498.813 417.734 499.866 416.214 500.666C414.721 501.466 412.827 501.866 410.534 501.866H405.854V512.586H400.254V484.666H410.534C412.694 484.666 414.534 485.04 416.054 485.786C417.574 486.533 418.707 487.56 419.454 488.866C420.227 490.173 420.614 491.653 420.614 493.306ZM410.294 497.346C411.841 497.346 412.987 497 413.734 496.306C414.481 495.586 414.854 494.586 414.854 493.306C414.854 490.586 413.334 489.226 410.294 489.226H405.854V497.346H410.294ZM423.15 501.426C423.15 499.186 423.59 497.2 424.47 495.466C425.377 493.733 426.59 492.4 428.11 491.466C429.657 490.533 431.377 490.066 433.27 490.066C434.923 490.066 436.363 490.4 437.59 491.066C438.843 491.733 439.843 492.573 440.59 493.586V490.426H446.23V512.586H440.59V509.346C439.87 510.386 438.87 511.253 437.59 511.946C436.337 512.613 434.883 512.946 433.23 512.946C431.363 512.946 429.657 512.466 428.11 511.506C426.59 510.546 425.377 509.2 424.47 507.466C423.59 505.706 423.15 503.693 423.15 501.426ZM440.59 501.506C440.59 500.146 440.323 498.986 439.79 498.026C439.257 497.04 438.537 496.293 437.63 495.786C436.723 495.253 435.75 494.986 434.71 494.986C433.67 494.986 432.71 495.24 431.83 495.746C430.95 496.253 430.23 497 429.67 497.986C429.137 498.946 428.87 500.093 428.87 501.426C428.87 502.76 429.137 503.933 429.67 504.946C430.23 505.933 430.95 506.693 431.83 507.226C432.737 507.76 433.697 508.026 434.71 508.026C435.75 508.026 436.723 507.773 437.63 507.266C438.537 506.733 439.257 505.986 439.79 505.026C440.323 504.04 440.59 502.866 440.59 501.506ZM460.379 490.066C462.033 490.066 463.486 490.4 464.739 491.066C465.993 491.706 466.979 492.546 467.699 493.586V490.426H473.339V512.746C473.339 514.8 472.926 516.626 472.099 518.226C471.273 519.853 470.033 521.133 468.379 522.066C466.726 523.026 464.726 523.506 462.379 523.506C459.233 523.506 456.646 522.773 454.619 521.306C452.619 519.84 451.486 517.84 451.219 515.306H456.779C457.073 516.32 457.699 517.12 458.659 517.706C459.646 518.32 460.833 518.626 462.219 518.626C463.846 518.626 465.166 518.133 466.179 517.146C467.193 516.186 467.699 514.72 467.699 512.746V509.306C466.979 510.346 465.979 511.213 464.699 511.906C463.446 512.6 462.006 512.946 460.379 512.946C458.513 512.946 456.806 512.466 455.259 511.506C453.713 510.546 452.486 509.2 451.579 507.466C450.699 505.706 450.259 503.693 450.259 501.426C450.259 499.186 450.699 497.2 451.579 495.466C452.486 493.733 453.699 492.4 455.219 491.466C456.766 490.533 458.486 490.066 460.379 490.066ZM467.699 501.506C467.699 500.146 467.433 498.986 466.899 498.026C466.366 497.04 465.646 496.293 464.739 495.786C463.833 495.253 462.859 494.986 461.819 494.986C460.779 494.986 459.819 495.24 458.939 495.746C458.059 496.253 457.339 497 456.779 497.986C456.246 498.946 455.979 500.093 455.979 501.426C455.979 502.76 456.246 503.933 456.779 504.946C457.339 505.933 458.059 506.693 458.939 507.226C459.846 507.76 460.806 508.026 461.819 508.026C462.859 508.026 463.833 507.773 464.739 507.266C465.646 506.733 466.366 505.986 466.899 505.026C467.433 504.04 467.699 502.866 467.699 501.506ZM499.409 501.026C499.409 501.826 499.355 502.546 499.249 503.186H483.049C483.182 504.786 483.742 506.04 484.729 506.946C485.715 507.853 486.929 508.306 488.369 508.306C490.449 508.306 491.929 507.413 492.809 505.626H498.849C498.209 507.76 496.982 509.52 495.169 510.906C493.355 512.266 491.129 512.946 488.489 512.946C486.355 512.946 484.435 512.48 482.729 511.546C481.049 510.586 479.729 509.24 478.769 507.506C477.835 505.773 477.369 503.773 477.369 501.506C477.369 499.213 477.835 497.2 478.769 495.466C479.702 493.733 481.009 492.4 482.689 491.466C484.369 490.533 486.302 490.066 488.489 490.066C490.595 490.066 492.475 490.52 494.129 491.426C495.809 492.333 497.102 493.626 498.009 495.306C498.942 496.96 499.409 498.866 499.409 501.026ZM493.609 499.426C493.582 497.986 493.062 496.84 492.049 495.986C491.035 495.106 489.795 494.666 488.329 494.666C486.942 494.666 485.769 495.093 484.809 495.946C483.875 496.773 483.302 497.933 483.089 499.426H493.609ZM515.868 487.786C514.881 487.786 514.054 487.48 513.388 486.866C512.748 486.226 512.428 485.44 512.428 484.506C512.428 483.573 512.748 482.8 513.388 482.186C514.054 481.546 514.881 481.226 515.868 481.226C516.854 481.226 517.668 481.546 518.308 482.186C518.974 482.8 519.308 483.573 519.308 484.506C519.308 485.44 518.974 486.226 518.308 486.866C517.668 487.48 516.854 487.786 515.868 487.786ZM518.628 490.426V512.586H513.028V490.426H518.628ZM532.64 512.946C530.827 512.946 529.2 512.626 527.76 511.986C526.32 511.32 525.174 510.426 524.32 509.306C523.494 508.186 523.04 506.946 522.96 505.586H528.6C528.707 506.44 529.12 507.146 529.84 507.706C530.587 508.266 531.507 508.546 532.6 508.546C533.667 508.546 534.494 508.333 535.08 507.906C535.694 507.48 536 506.933 536 506.266C536 505.546 535.627 505.013 534.88 504.666C534.16 504.293 533 503.893 531.4 503.466C529.747 503.066 528.387 502.653 527.32 502.226C526.28 501.8 525.374 501.146 524.6 500.266C523.854 499.386 523.48 498.2 523.48 496.706C523.48 495.48 523.827 494.36 524.52 493.346C525.24 492.333 526.254 491.533 527.56 490.946C528.894 490.36 530.454 490.066 532.24 490.066C534.88 490.066 536.987 490.733 538.56 492.066C540.134 493.373 541 495.146 541.16 497.386H535.8C535.72 496.506 535.347 495.813 534.68 495.306C534.04 494.773 533.174 494.506 532.08 494.506C531.067 494.506 530.28 494.693 529.72 495.066C529.187 495.44 528.92 495.96 528.92 496.626C528.92 497.373 529.294 497.946 530.04 498.346C530.787 498.72 531.947 499.106 533.52 499.506C535.12 499.906 536.44 500.32 537.48 500.746C538.52 501.173 539.414 501.84 540.16 502.746C540.934 503.626 541.334 504.8 541.36 506.266C541.36 507.546 541 508.693 540.28 509.706C539.587 510.72 538.574 511.52 537.24 512.106C535.934 512.666 534.4 512.946 532.64 512.946ZM579.369 512.586H573.769L561.089 493.426V512.586H555.489V484.626H561.089L573.769 503.826V484.626H579.369V512.586ZM594.743 512.946C592.609 512.946 590.689 512.48 588.983 511.546C587.276 510.586 585.929 509.24 584.943 507.506C583.983 505.773 583.503 503.773 583.503 501.506C583.503 499.24 583.996 497.24 584.983 495.506C585.996 493.773 587.369 492.44 589.103 491.506C590.836 490.546 592.769 490.066 594.903 490.066C597.036 490.066 598.969 490.546 600.703 491.506C602.436 492.44 603.796 493.773 604.783 495.506C605.796 497.24 606.303 499.24 606.303 501.506C606.303 503.773 605.783 505.773 604.743 507.506C603.729 509.24 602.343 510.586 600.583 511.546C598.849 512.48 596.903 512.946 594.743 512.946ZM594.743 508.066C595.756 508.066 596.703 507.826 597.583 507.346C598.489 506.84 599.209 506.093 599.743 505.106C600.276 504.12 600.543 502.92 600.543 501.506C600.543 499.4 599.983 497.786 598.863 496.666C597.769 495.52 596.423 494.946 594.823 494.946C593.223 494.946 591.876 495.52 590.783 496.666C589.716 497.786 589.183 499.4 589.183 501.506C589.183 503.613 589.703 505.24 590.743 506.386C591.809 507.506 593.143 508.066 594.743 508.066ZM616.93 495.026V505.746C616.93 506.493 617.104 507.04 617.45 507.386C617.824 507.706 618.437 507.866 619.29 507.866H621.89V512.586H618.37C613.65 512.586 611.29 510.293 611.29 505.706V495.026H608.65V490.426H611.29V484.946H616.93V490.426H621.89V495.026H616.93ZM672.769 484.666L664.969 512.586H658.369L653.129 492.706L647.649 512.586L641.089 512.626L633.569 484.666H639.569L644.489 506.346L650.169 484.666H656.409L661.769 506.226L666.729 484.666H672.769ZM686.266 512.946C684.133 512.946 682.213 512.48 680.506 511.546C678.799 510.586 677.453 509.24 676.466 507.506C675.506 505.773 675.026 503.773 675.026 501.506C675.026 499.24 675.519 497.24 676.506 495.506C677.519 493.773 678.893 492.44 680.626 491.506C682.359 490.546 684.293 490.066 686.426 490.066C688.559 490.066 690.493 490.546 692.226 491.506C693.959 492.44 695.319 493.773 696.306 495.506C697.319 497.24 697.826 499.24 697.826 501.506C697.826 503.773 697.306 505.773 696.266 507.506C695.253 509.24 693.866 510.586 692.106 511.546C690.373 512.48 688.426 512.946 686.266 512.946ZM686.266 508.066C687.279 508.066 688.226 507.826 689.106 507.346C690.013 506.84 690.733 506.093 691.266 505.106C691.799 504.12 692.066 502.92 692.066 501.506C692.066 499.4 691.506 497.786 690.386 496.666C689.293 495.52 687.946 494.946 686.346 494.946C684.746 494.946 683.399 495.52 682.306 496.666C681.239 497.786 680.706 499.4 680.706 501.506C680.706 503.613 681.226 505.24 682.266 506.386C683.333 507.506 684.666 508.066 686.266 508.066ZM707.534 493.866C708.254 492.693 709.187 491.773 710.334 491.106C711.507 490.44 712.84 490.106 714.334 490.106V495.986H712.854C711.094 495.986 709.76 496.4 708.854 497.226C707.974 498.053 707.534 499.493 707.534 501.546V512.586H701.934V490.426H707.534V493.866ZM731.226 512.586L723.706 503.146V512.586H718.106V482.986H723.706V499.826L731.146 490.426H738.426L728.666 501.546L738.506 512.586H731.226ZM744.305 487.786C743.318 487.786 742.492 487.48 741.825 486.866C741.185 486.226 740.865 485.44 740.865 484.506C740.865 483.573 741.185 482.8 741.825 482.186C742.492 481.546 743.318 481.226 744.305 481.226C745.292 481.226 746.105 481.546 746.745 482.186C747.412 482.8 747.745 483.573 747.745 484.506C747.745 485.44 747.412 486.226 746.745 486.866C746.105 487.48 745.292 487.786 744.305 487.786ZM747.065 490.426V512.586H741.465V490.426H747.065ZM764.878 490.106C767.518 490.106 769.651 490.946 771.278 492.626C772.905 494.28 773.718 496.6 773.718 499.586V512.586H768.118V500.346C768.118 498.586 767.678 497.24 766.798 496.306C765.918 495.346 764.718 494.866 763.198 494.866C761.651 494.866 760.425 495.346 759.518 496.306C758.638 497.24 758.198 498.586 758.198 500.346V512.586H752.598V490.426H758.198V493.186C758.945 492.226 759.891 491.48 761.038 490.946C762.211 490.386 763.491 490.106 764.878 490.106ZM787.723 490.066C789.377 490.066 790.83 490.4 792.083 491.066C793.337 491.706 794.323 492.546 795.043 493.586V490.426H800.683V512.746C800.683 514.8 800.27 516.626 799.443 518.226C798.617 519.853 797.377 521.133 795.723 522.066C794.07 523.026 792.07 523.506 789.723 523.506C786.577 523.506 783.99 522.773 781.963 521.306C779.963 519.84 778.83 517.84 778.563 515.306H784.123C784.417 516.32 785.043 517.12 786.003 517.706C786.99 518.32 788.177 518.626 789.563 518.626C791.19 518.626 792.51 518.133 793.523 517.146C794.537 516.186 795.043 514.72 795.043 512.746V509.306C794.323 510.346 793.323 511.213 792.043 511.906C790.79 512.6 789.35 512.946 787.723 512.946C785.857 512.946 784.15 512.466 782.603 511.506C781.057 510.546 779.83 509.2 778.923 507.466C778.043 505.706 777.603 503.693 777.603 501.426C777.603 499.186 778.043 497.2 778.923 495.466C779.83 493.733 781.043 492.4 782.563 491.466C784.11 490.533 785.83 490.066 787.723 490.066ZM795.043 501.506C795.043 500.146 794.777 498.986 794.243 498.026C793.71 497.04 792.99 496.293 792.083 495.786C791.177 495.253 790.203 494.986 789.163 494.986C788.123 494.986 787.163 495.24 786.283 495.746C785.403 496.253 784.683 497 784.123 497.986C783.59 498.946 783.323 500.093 783.323 501.426C783.323 502.76 783.59 503.933 784.123 504.946C784.683 505.933 785.403 506.693 786.283 507.226C787.19 507.76 788.15 508.026 789.163 508.026C790.203 508.026 791.177 507.773 792.083 507.266C792.99 506.733 793.71 505.986 794.243 505.026C794.777 504.04 795.043 502.866 795.043 501.506ZM808.633 512.866C807.619 512.866 806.779 512.56 806.113 511.946C805.473 511.306 805.153 510.52 805.153 509.586C805.153 508.653 805.473 507.88 806.113 507.266C806.779 506.626 807.619 506.306 808.633 506.306C809.619 506.306 810.433 506.626 811.073 507.266C811.713 507.88 812.033 508.653 812.033 509.586C812.033 510.52 811.713 511.306 811.073 511.946C810.433 512.56 809.619 512.866 808.633 512.866Z" fill="white"/>
<path d="M334.124 544.343V545.749H330.514V557.586H328.785V545.749H325.156V544.343H334.124ZM341.42 546.984C342.205 546.984 342.915 547.155 343.548 547.497C344.181 547.827 344.675 548.327 345.03 548.998C345.397 549.67 345.581 550.487 345.581 551.449V557.586H343.871V551.696C343.871 550.658 343.611 549.866 343.092 549.321C342.573 548.764 341.863 548.485 340.964 548.485C340.052 548.485 339.324 548.77 338.779 549.34C338.247 549.91 337.981 550.74 337.981 551.829V557.586H336.252V543.526H337.981V548.656C338.323 548.124 338.792 547.713 339.387 547.421C339.995 547.13 340.673 546.984 341.42 546.984ZM357.905 551.981C357.905 552.311 357.886 552.659 357.848 553.026H349.526C349.59 554.052 349.938 554.857 350.571 555.439C351.217 556.009 351.996 556.294 352.908 556.294C353.656 556.294 354.276 556.123 354.77 555.781C355.277 555.427 355.632 554.958 355.834 554.375H357.696C357.418 555.376 356.86 556.193 356.024 556.826C355.188 557.447 354.15 557.757 352.908 557.757C351.92 557.757 351.034 557.536 350.248 557.092C349.476 556.649 348.868 556.022 348.424 555.211C347.981 554.388 347.759 553.438 347.759 552.361C347.759 551.285 347.975 550.341 348.405 549.53C348.836 548.72 349.438 548.099 350.21 547.668C350.996 547.225 351.895 547.003 352.908 547.003C353.896 547.003 354.77 547.219 355.53 547.649C356.29 548.08 356.873 548.675 357.278 549.435C357.696 550.183 357.905 551.031 357.905 551.981ZM356.119 551.62C356.119 550.962 355.974 550.398 355.682 549.929C355.391 549.448 354.992 549.087 354.485 548.846C353.991 548.593 353.44 548.466 352.832 548.466C351.958 548.466 351.211 548.745 350.59 549.302C349.982 549.86 349.634 550.632 349.545 551.62H356.119ZM366.982 548.865C367.286 548.27 367.717 547.808 368.274 547.478C368.844 547.149 369.534 546.984 370.345 546.984V548.77H369.889C367.951 548.77 366.982 549.822 366.982 551.924V557.586H365.253V547.174H366.982V548.865ZM381.841 551.981C381.841 552.311 381.822 552.659 381.784 553.026H373.462C373.525 554.052 373.874 554.857 374.507 555.439C375.153 556.009 375.932 556.294 376.844 556.294C377.591 556.294 378.212 556.123 378.706 555.781C379.213 555.427 379.567 554.958 379.77 554.375H381.632C381.353 555.376 380.796 556.193 379.96 556.826C379.124 557.447 378.085 557.757 376.844 557.757C375.856 557.757 374.969 557.536 374.184 557.092C373.411 556.649 372.803 556.022 372.36 555.211C371.917 554.388 371.695 553.438 371.695 552.361C371.695 551.285 371.91 550.341 372.341 549.53C372.772 548.72 373.373 548.099 374.146 547.668C374.931 547.225 375.831 547.003 376.844 547.003C377.832 547.003 378.706 547.219 379.466 547.649C380.226 548.08 380.809 548.675 381.214 549.435C381.632 550.183 381.841 551.031 381.841 551.981ZM380.055 551.62C380.055 550.962 379.909 550.398 379.618 549.929C379.327 549.448 378.928 549.087 378.421 548.846C377.927 548.593 377.376 548.466 376.768 548.466C375.894 548.466 375.147 548.745 374.526 549.302C373.918 549.86 373.57 550.632 373.481 551.62H380.055ZM383.477 552.342C383.477 551.278 383.692 550.347 384.123 549.549C384.554 548.739 385.143 548.112 385.89 547.668C386.65 547.225 387.499 547.003 388.436 547.003C389.335 547.003 390.121 547.206 390.792 547.611C391.476 548.004 391.976 548.492 392.293 549.074V547.174H394.041V562.526H392.293V555.667C391.964 556.25 391.457 556.744 390.773 557.149C390.089 557.555 389.291 557.757 388.379 557.757C387.467 557.757 386.637 557.529 385.89 557.073C385.143 556.617 384.554 555.978 384.123 555.154C383.692 554.331 383.477 553.394 383.477 552.342ZM392.293 552.361C392.293 551.576 392.135 550.892 391.818 550.309C391.501 549.727 391.071 549.283 390.526 548.979C389.994 548.663 389.405 548.504 388.759 548.504C388.113 548.504 387.524 548.656 386.992 548.96C386.46 549.264 386.036 549.708 385.719 550.29C385.402 550.873 385.244 551.557 385.244 552.342C385.244 553.14 385.402 553.837 385.719 554.432C386.036 555.015 386.46 555.465 386.992 555.781C387.524 556.085 388.113 556.237 388.759 556.237C389.405 556.237 389.994 556.085 390.526 555.781C391.071 555.465 391.501 555.015 391.818 554.432C392.135 553.837 392.293 553.147 392.293 552.361ZM406.197 547.174V557.586H404.468V556.047C404.139 556.579 403.676 556.997 403.081 557.301C402.498 557.593 401.852 557.738 401.143 557.738C400.332 557.738 399.604 557.574 398.958 557.244C398.312 556.902 397.799 556.396 397.419 555.724C397.052 555.053 396.868 554.236 396.868 553.273V547.174H398.578V553.045C398.578 554.071 398.838 554.863 399.357 555.42C399.876 555.965 400.586 556.237 401.485 556.237C402.41 556.237 403.138 555.952 403.67 555.382C404.202 554.812 404.468 553.983 404.468 552.893V547.174H406.197ZM418.616 551.981C418.616 552.311 418.597 552.659 418.559 553.026H410.237C410.301 554.052 410.649 554.857 411.282 555.439C411.928 556.009 412.707 556.294 413.619 556.294C414.367 556.294 414.987 556.123 415.481 555.781C415.988 555.427 416.343 554.958 416.545 554.375H418.407C418.129 555.376 417.571 556.193 416.735 556.826C415.899 557.447 414.861 557.757 413.619 557.757C412.631 557.757 411.745 557.536 410.959 557.092C410.187 556.649 409.579 556.022 409.135 555.211C408.692 554.388 408.47 553.438 408.47 552.361C408.47 551.285 408.686 550.341 409.116 549.53C409.547 548.72 410.149 548.099 410.921 547.668C411.707 547.225 412.606 547.003 413.619 547.003C414.607 547.003 415.481 547.219 416.241 547.649C417.001 548.08 417.584 548.675 417.989 549.435C418.407 550.183 418.616 551.031 418.616 551.981ZM416.83 551.62C416.83 550.962 416.685 550.398 416.393 549.929C416.102 549.448 415.703 549.087 415.196 548.846C414.702 548.593 414.151 548.466 413.543 548.466C412.669 548.466 411.922 548.745 411.301 549.302C410.693 549.86 410.345 550.632 410.256 551.62H416.83ZM424.585 557.757C423.787 557.757 423.071 557.624 422.438 557.358C421.804 557.08 421.304 556.7 420.937 556.218C420.569 555.724 420.367 555.161 420.329 554.527H422.115C422.165 555.047 422.406 555.471 422.837 555.8C423.28 556.13 423.856 556.294 424.566 556.294C425.224 556.294 425.744 556.149 426.124 555.857C426.504 555.566 426.694 555.199 426.694 554.755C426.694 554.299 426.491 553.964 426.086 553.748C425.68 553.52 425.053 553.299 424.205 553.083C423.432 552.881 422.799 552.678 422.305 552.475C421.823 552.26 421.405 551.95 421.051 551.544C420.709 551.126 420.538 550.582 420.538 549.91C420.538 549.378 420.696 548.891 421.013 548.447C421.329 548.004 421.779 547.656 422.362 547.402C422.944 547.136 423.609 547.003 424.357 547.003C425.509 547.003 426.44 547.295 427.15 547.877C427.859 548.46 428.239 549.258 428.29 550.271H426.561C426.523 549.727 426.301 549.29 425.896 548.96C425.503 548.631 424.971 548.466 424.3 548.466C423.679 548.466 423.185 548.599 422.818 548.865C422.45 549.131 422.267 549.48 422.267 549.91C422.267 550.252 422.374 550.537 422.59 550.765C422.818 550.981 423.096 551.158 423.426 551.297C423.768 551.424 424.236 551.57 424.832 551.734C425.579 551.937 426.187 552.14 426.656 552.342C427.124 552.532 427.523 552.824 427.853 553.216C428.195 553.609 428.372 554.122 428.385 554.755C428.385 555.325 428.226 555.838 427.91 556.294C427.593 556.75 427.143 557.111 426.561 557.377C425.991 557.631 425.332 557.757 424.585 557.757ZM432.934 548.599V554.736C432.934 555.243 433.042 555.604 433.257 555.819C433.473 556.022 433.846 556.123 434.378 556.123H435.651V557.586H434.093C433.131 557.586 432.409 557.365 431.927 556.921C431.446 556.478 431.205 555.75 431.205 554.736V548.599H429.856V547.174H431.205V544.552H432.934V547.174H435.651V548.599H432.934ZM447.246 551.981C447.246 552.311 447.227 552.659 447.189 553.026H438.867C438.931 554.052 439.279 554.857 439.912 555.439C440.558 556.009 441.337 556.294 442.249 556.294C442.997 556.294 443.617 556.123 444.111 555.781C444.618 555.427 444.973 554.958 445.175 554.375H447.037C446.759 555.376 446.201 556.193 445.365 556.826C444.529 557.447 443.491 557.757 442.249 557.757C441.261 557.757 440.375 557.536 439.589 557.092C438.817 556.649 438.209 556.022 437.765 555.211C437.322 554.388 437.1 553.438 437.1 552.361C437.1 551.285 437.316 550.341 437.746 549.53C438.177 548.72 438.779 548.099 439.551 547.668C440.337 547.225 441.236 547.003 442.249 547.003C443.237 547.003 444.111 547.219 444.871 547.649C445.631 548.08 446.214 548.675 446.619 549.435C447.037 550.183 447.246 551.031 447.246 551.981ZM445.46 551.62C445.46 550.962 445.315 550.398 445.023 549.929C444.732 549.448 444.333 549.087 443.826 548.846C443.332 548.593 442.781 548.466 442.173 548.466C441.299 548.466 440.552 548.745 439.931 549.302C439.323 549.86 438.975 550.632 438.886 551.62H445.46ZM448.882 552.342C448.882 551.278 449.098 550.347 449.528 549.549C449.959 548.739 450.548 548.112 451.295 547.668C452.055 547.225 452.904 547.003 453.841 547.003C454.652 547.003 455.406 547.193 456.102 547.573C456.799 547.941 457.331 548.428 457.698 549.036V543.526H459.446V557.586H457.698V555.629C457.356 556.25 456.85 556.763 456.178 557.168C455.507 557.561 454.722 557.757 453.822 557.757C452.898 557.757 452.055 557.529 451.295 557.073C450.548 556.617 449.959 555.978 449.528 555.154C449.098 554.331 448.882 553.394 448.882 552.342ZM457.698 552.361C457.698 551.576 457.54 550.892 457.223 550.309C456.907 549.727 456.476 549.283 455.931 548.979C455.399 548.663 454.81 548.504 454.164 548.504C453.518 548.504 452.929 548.656 452.397 548.96C451.865 549.264 451.441 549.708 451.124 550.29C450.808 550.873 450.649 551.557 450.649 552.342C450.649 553.14 450.808 553.837 451.124 554.432C451.441 555.015 451.865 555.465 452.397 555.781C452.929 556.085 453.518 556.237 454.164 556.237C454.81 556.237 455.399 556.085 455.931 555.781C456.476 555.465 456.907 555.015 457.223 554.432C457.54 553.837 457.698 553.147 457.698 552.361ZM468.327 545.483C467.997 545.483 467.719 545.369 467.491 545.141C467.263 544.913 467.149 544.635 467.149 544.305C467.149 543.976 467.263 543.697 467.491 543.469C467.719 543.241 467.997 543.127 468.327 543.127C468.643 543.127 468.909 543.241 469.125 543.469C469.353 543.697 469.467 543.976 469.467 544.305C469.467 544.635 469.353 544.913 469.125 545.141C468.909 545.369 468.643 545.483 468.327 545.483ZM469.163 547.174V557.586H467.434V547.174H469.163ZM475.795 557.757C474.997 557.757 474.282 557.624 473.648 557.358C473.015 557.08 472.515 556.7 472.147 556.218C471.78 555.724 471.577 555.161 471.539 554.527H473.325C473.376 555.047 473.617 555.471 474.047 555.8C474.491 556.13 475.067 556.294 475.776 556.294C476.435 556.294 476.954 556.149 477.334 555.857C477.714 555.566 477.904 555.199 477.904 554.755C477.904 554.299 477.702 553.964 477.296 553.748C476.891 553.52 476.264 553.299 475.415 553.083C474.643 552.881 474.009 552.678 473.515 552.475C473.034 552.26 472.616 551.95 472.261 551.544C471.919 551.126 471.748 550.582 471.748 549.91C471.748 549.378 471.907 548.891 472.223 548.447C472.54 548.004 472.99 547.656 473.572 547.402C474.155 547.136 474.82 547.003 475.567 547.003C476.72 547.003 477.651 547.295 478.36 547.877C479.07 548.46 479.45 549.258 479.5 550.271H477.771C477.733 549.727 477.512 549.29 477.106 548.96C476.714 548.631 476.182 548.466 475.51 548.466C474.89 548.466 474.396 548.599 474.028 548.865C473.661 549.131 473.477 549.48 473.477 549.91C473.477 550.252 473.585 550.537 473.8 550.765C474.028 550.981 474.307 551.158 474.636 551.297C474.978 551.424 475.447 551.57 476.042 551.734C476.79 551.937 477.398 552.14 477.866 552.342C478.335 552.532 478.734 552.824 479.063 553.216C479.405 553.609 479.583 554.122 479.595 554.755C479.595 555.325 479.437 555.838 479.12 556.294C478.804 556.75 478.354 557.111 477.771 557.377C477.201 557.631 476.543 557.757 475.795 557.757ZM488.831 544.343V557.586H487.102V544.343H488.831ZM496.85 546.984C498.117 546.984 499.143 547.371 499.928 548.143C500.714 548.903 501.106 550.005 501.106 551.449V557.586H499.396V551.696C499.396 550.658 499.137 549.866 498.617 549.321C498.098 548.764 497.389 548.485 496.489 548.485C495.577 548.485 494.849 548.77 494.304 549.34C493.772 549.91 493.506 550.74 493.506 551.829V557.586H491.777V547.174H493.506V548.656C493.848 548.124 494.311 547.713 494.893 547.421C495.489 547.13 496.141 546.984 496.85 546.984ZM506.04 548.599V554.736C506.04 555.243 506.147 555.604 506.363 555.819C506.578 556.022 506.952 556.123 507.484 556.123H508.757V557.586H507.199C506.236 557.586 505.514 557.365 505.033 556.921C504.551 556.478 504.311 555.75 504.311 554.736V548.599H502.962V547.174H504.311V544.552H506.04V547.174H508.757V548.599H506.04ZM520.352 551.981C520.352 552.311 520.333 552.659 520.295 553.026H511.973C512.036 554.052 512.384 554.857 513.018 555.439C513.664 556.009 514.443 556.294 515.355 556.294C516.102 556.294 516.723 556.123 517.217 555.781C517.723 555.427 518.078 554.958 518.281 554.375H520.143C519.864 555.376 519.307 556.193 518.471 556.826C517.635 557.447 516.596 557.757 515.355 557.757C514.367 557.757 513.48 557.536 512.695 557.092C511.922 556.649 511.314 556.022 510.871 555.211C510.427 554.388 510.206 553.438 510.206 552.361C510.206 551.285 510.421 550.341 510.852 549.53C511.282 548.72 511.884 548.099 512.657 547.668C513.442 547.225 514.341 547.003 515.355 547.003C516.343 547.003 517.217 547.219 517.977 547.649C518.737 548.08 519.319 548.675 519.725 549.435C520.143 550.183 520.352 551.031 520.352 551.981ZM518.566 551.62C518.566 550.962 518.42 550.398 518.129 549.929C517.837 549.448 517.438 549.087 516.932 548.846C516.438 548.593 515.887 548.466 515.279 548.466C514.405 548.466 513.657 548.745 513.037 549.302C512.429 549.86 512.08 550.632 511.992 551.62H518.566ZM524.363 548.865C524.667 548.27 525.098 547.808 525.655 547.478C526.225 547.149 526.915 546.984 527.726 546.984V548.77H527.27C525.332 548.77 524.363 549.822 524.363 551.924V557.586H522.634V547.174H524.363V548.865ZM534.795 546.984C536.061 546.984 537.087 547.371 537.873 548.143C538.658 548.903 539.051 550.005 539.051 551.449V557.586H537.341V551.696C537.341 550.658 537.081 549.866 536.562 549.321C536.042 548.764 535.333 548.485 534.434 548.485C533.522 548.485 532.793 548.77 532.249 549.34C531.717 549.91 531.451 550.74 531.451 551.829V557.586H529.722V547.174H531.451V548.656C531.793 548.124 532.255 547.713 532.838 547.421C533.433 547.13 534.085 546.984 534.795 546.984ZM541.229 552.342C541.229 551.278 541.444 550.347 541.875 549.549C542.306 548.739 542.895 548.112 543.642 547.668C544.402 547.225 545.244 547.003 546.169 547.003C547.081 547.003 547.873 547.2 548.544 547.592C549.215 547.985 549.716 548.479 550.045 549.074V547.174H551.793V557.586H550.045V555.648C549.703 556.256 549.19 556.763 548.506 557.168C547.835 557.561 547.049 557.757 546.15 557.757C545.225 557.757 544.389 557.529 543.642 557.073C542.895 556.617 542.306 555.978 541.875 555.154C541.444 554.331 541.229 553.394 541.229 552.342ZM550.045 552.361C550.045 551.576 549.887 550.892 549.57 550.309C549.253 549.727 548.823 549.283 548.278 548.979C547.746 548.663 547.157 548.504 546.511 548.504C545.865 548.504 545.276 548.656 544.744 548.96C544.212 549.264 543.788 549.708 543.471 550.29C543.154 550.873 542.996 551.557 542.996 552.342C542.996 553.14 543.154 553.837 543.471 554.432C543.788 555.015 544.212 555.465 544.744 555.781C545.276 556.085 545.865 556.237 546.511 556.237C547.157 556.237 547.746 556.085 548.278 555.781C548.823 555.465 549.253 555.015 549.57 554.432C549.887 553.837 550.045 553.147 550.045 552.361ZM556.444 543.526V557.586H554.715V543.526H556.444ZM568.655 557.719C567.781 557.719 566.996 557.567 566.299 557.263C565.615 556.947 565.077 556.516 564.684 555.971C564.291 555.414 564.089 554.774 564.076 554.052H565.919C565.982 554.673 566.236 555.199 566.679 555.629C567.135 556.047 567.794 556.256 568.655 556.256C569.478 556.256 570.124 556.054 570.593 555.648C571.074 555.23 571.315 554.698 571.315 554.052C571.315 553.546 571.176 553.134 570.897 552.817C570.618 552.501 570.27 552.26 569.852 552.095C569.434 551.931 568.87 551.753 568.161 551.563C567.287 551.335 566.584 551.107 566.052 550.879C565.533 550.651 565.083 550.297 564.703 549.815C564.336 549.321 564.152 548.663 564.152 547.839C564.152 547.117 564.336 546.478 564.703 545.92C565.07 545.363 565.583 544.932 566.242 544.628C566.913 544.324 567.68 544.172 568.541 544.172C569.782 544.172 570.796 544.483 571.581 545.103C572.379 545.724 572.829 546.547 572.93 547.573H571.03C570.967 547.067 570.701 546.623 570.232 546.243C569.763 545.851 569.143 545.654 568.37 545.654C567.648 545.654 567.059 545.844 566.603 546.224C566.147 546.592 565.919 547.111 565.919 547.782C565.919 548.264 566.052 548.656 566.318 548.96C566.597 549.264 566.932 549.499 567.325 549.663C567.73 549.815 568.294 549.993 569.016 550.195C569.89 550.436 570.593 550.677 571.125 550.917C571.657 551.145 572.113 551.506 572.493 552C572.873 552.482 573.063 553.14 573.063 553.976C573.063 554.622 572.892 555.23 572.55 555.8C572.208 556.37 571.701 556.833 571.03 557.187C570.359 557.542 569.567 557.719 568.655 557.719ZM585.108 551.981C585.108 552.311 585.089 552.659 585.051 553.026H576.729C576.792 554.052 577.14 554.857 577.774 555.439C578.42 556.009 579.199 556.294 580.111 556.294C580.858 556.294 581.479 556.123 581.973 555.781C582.479 555.427 582.834 554.958 583.037 554.375H584.899C584.62 555.376 584.063 556.193 583.227 556.826C582.391 557.447 581.352 557.757 580.111 557.757C579.123 557.757 578.236 557.536 577.451 557.092C576.678 556.649 576.07 556.022 575.627 555.211C575.183 554.388 574.962 553.438 574.962 552.361C574.962 551.285 575.177 550.341 575.608 549.53C576.038 548.72 576.64 548.099 577.413 547.668C578.198 547.225 579.097 547.003 580.111 547.003C581.099 547.003 581.973 547.219 582.733 547.649C583.493 548.08 584.075 548.675 584.481 549.435C584.899 550.183 585.108 551.031 585.108 551.981ZM583.322 551.62C583.322 550.962 583.176 550.398 582.885 549.929C582.593 549.448 582.194 549.087 581.688 548.846C581.194 548.593 580.643 548.466 580.035 548.466C579.161 548.466 578.413 548.745 577.793 549.302C577.185 549.86 576.836 550.632 576.748 551.62H583.322ZM589.119 548.865C589.423 548.27 589.853 547.808 590.411 547.478C590.981 547.149 591.671 546.984 592.482 546.984V548.77H592.026C590.088 548.77 589.119 549.822 589.119 551.924V557.586H587.39V547.174H589.119V548.865ZM598.354 555.99L601.584 547.174H603.427L599.342 557.586H597.328L593.243 547.174H595.105L598.354 555.99ZM614.628 551.981C614.628 552.311 614.609 552.659 614.571 553.026H606.249C606.312 554.052 606.661 554.857 607.294 555.439C607.94 556.009 608.719 556.294 609.631 556.294C610.378 556.294 610.999 556.123 611.493 555.781C612 555.427 612.354 554.958 612.557 554.375H614.419C614.14 555.376 613.583 556.193 612.747 556.826C611.911 557.447 610.872 557.757 609.631 557.757C608.643 557.757 607.756 557.536 606.971 557.092C606.198 556.649 605.59 556.022 605.147 555.211C604.704 554.388 604.482 553.438 604.482 552.361C604.482 551.285 604.697 550.341 605.128 549.53C605.559 548.72 606.16 548.099 606.933 547.668C607.718 547.225 608.618 547.003 609.631 547.003C610.619 547.003 611.493 547.219 612.253 547.649C613.013 548.08 613.596 548.675 614.001 549.435C614.419 550.183 614.628 551.031 614.628 551.981ZM612.842 551.62C612.842 550.962 612.696 550.398 612.405 549.929C612.114 549.448 611.715 549.087 611.208 548.846C610.714 548.593 610.163 548.466 609.555 548.466C608.681 548.466 607.934 548.745 607.313 549.302C606.705 549.86 606.357 550.632 606.268 551.62H612.842ZM618.639 548.865C618.943 548.27 619.374 547.808 619.931 547.478C620.501 547.149 621.192 546.984 622.002 546.984V548.77H621.546C619.608 548.77 618.639 549.822 618.639 551.924V557.586H616.91V547.174H618.639V548.865ZM630.793 545.749V550.176H635.619V551.601H630.793V556.161H636.189V557.586H629.064V544.324H636.189V545.749H630.793ZM640.534 548.865C640.838 548.27 641.268 547.808 641.826 547.478C642.396 547.149 643.086 546.984 643.897 546.984V548.77H643.441C641.503 548.77 640.534 549.822 640.534 551.924V557.586H638.805V547.174H640.534V548.865ZM647.622 548.865C647.926 548.27 648.356 547.808 648.914 547.478C649.484 547.149 650.174 546.984 650.985 546.984V548.77H650.529C648.591 548.77 647.622 549.822 647.622 551.924V557.586H645.893V547.174H647.622V548.865ZM657.522 557.757C656.546 557.757 655.66 557.536 654.862 557.092C654.076 556.649 653.456 556.022 653 555.211C652.556 554.388 652.335 553.438 652.335 552.361C652.335 551.297 652.563 550.36 653.019 549.549C653.487 548.726 654.121 548.099 654.919 547.668C655.717 547.225 656.61 547.003 657.598 547.003C658.586 547.003 659.479 547.225 660.277 547.668C661.075 548.099 661.702 548.72 662.158 549.53C662.626 550.341 662.861 551.285 662.861 552.361C662.861 553.438 662.62 554.388 662.139 555.211C661.67 556.022 661.03 556.649 660.22 557.092C659.409 557.536 658.51 557.757 657.522 557.757ZM657.522 556.237C658.142 556.237 658.725 556.092 659.27 555.8C659.814 555.509 660.251 555.072 660.581 554.489C660.923 553.907 661.094 553.197 661.094 552.361C661.094 551.525 660.929 550.816 660.6 550.233C660.27 549.651 659.84 549.22 659.308 548.941C658.776 548.65 658.199 548.504 657.579 548.504C656.945 548.504 656.363 548.65 655.831 548.941C655.311 549.22 654.893 549.651 654.577 550.233C654.26 550.816 654.102 551.525 654.102 552.361C654.102 553.21 654.254 553.926 654.558 554.508C654.874 555.091 655.292 555.528 655.812 555.819C656.331 556.098 656.901 556.237 657.522 556.237ZM666.863 548.865C667.167 548.27 667.598 547.808 668.155 547.478C668.725 547.149 669.415 546.984 670.226 546.984V548.77H669.77C667.832 548.77 666.863 549.822 666.863 551.924V557.586H665.134V547.174H666.863V548.865ZM672.773 557.7C672.443 557.7 672.165 557.586 671.937 557.358C671.709 557.13 671.595 556.852 671.595 556.522C671.595 556.193 671.709 555.914 671.937 555.686C672.165 555.458 672.443 555.344 672.773 555.344C673.089 555.344 673.355 555.458 673.571 555.686C673.799 555.914 673.913 556.193 673.913 556.522C673.913 556.852 673.799 557.13 673.571 557.358C673.355 557.586 673.089 557.7 672.773 557.7Z" fill="white"/>
</svg>
